<?xml version="1.0" standalone="no"?><!DOCTYPE svg PUBLIC "-//W3C//DTD SVG 1.1//EN" "http://www.w3.org/Graphics/SVG/1.1/DTD/svg11.dtd"><svg t="1588849534203" class="icon" viewBox="0 0 1024 1024" version="1.1" xmlns="http://www.w3.org/2000/svg" p-id="3890" xmlns:xlink="http://www.w3.org/1999/xlink" width="200" height="200"><defs><style type="text/css"></style></defs><path d="M298.666667 85.333333c0 23.573333-19.093333 42.666667-42.666667 42.666667h-85.333333c-23.573333 0-42.666667 19.093333-42.666667 42.666667v85.333333c0 23.573333-19.093333 42.666667-42.666667 42.666667s-42.666667-19.093333-42.666666-42.666667v-85.333333C42.666667 99.946667 99.946667 42.666667 170.666667 42.666667h85.333333c23.573333 0 42.666667 19.093333 42.666667 42.666666zM128 426.666667v170.666666c0 23.573333-19.093333 42.666667-42.666667 42.666667s-42.666667-19.093333-42.666666-42.666667V426.666667c0-23.573333 19.093333-42.666667 42.666666-42.666667s42.666667 19.093333 42.666667 42.666667z m170.666667 512c0 23.573333-19.093333 42.666667-42.666667 42.666666h-85.333333C99.946667 981.333333 42.666667 924.053333 42.666667 853.333333v-85.333333c0-23.573333 19.093333-42.666667 42.666666-42.666667s42.666667 19.093333 42.666667 42.666667v85.333333c0 23.573333 19.093333 42.666667 42.666667 42.666667h85.333333c23.573333 0 42.666667 19.093333 42.666667 42.666667z m341.333333 0c0 23.573333-19.093333 42.666667-42.666667 42.666666H426.666667c-23.573333 0-42.666667-19.093333-42.666667-42.666666s19.093333-42.666667 42.666667-42.666667h170.666666c23.573333 0 42.666667 19.093333 42.666667 42.666667z m341.333333-170.666667v85.333333c0 70.72-57.28 128-128 128h-85.333333c-23.573333 0-42.666667-19.093333-42.666667-42.666666s19.093333-42.666667 42.666667-42.666667h85.333333c23.573333 0 42.666667-19.093333 42.666667-42.666667v-85.333333c0-23.573333 19.093333-42.666667 42.666667-42.666667s42.666667 19.093333 42.666666 42.666667z m0-341.333333v170.666666c0 23.573333-19.093333 42.666667-42.666666 42.666667s-42.666667-19.093333-42.666667-42.666667V426.666667c0-23.573333 19.093333-42.666667 42.666667-42.666667s42.666667 19.093333 42.666666 42.666667z m0-256v85.333333c0 23.573333-19.093333 42.666667-42.666666 42.666667s-42.666667-19.093333-42.666667-42.666667v-85.333333c0-23.573333-19.093333-42.666667-42.666667-42.666667h-85.333333c-23.573333 0-42.666667-19.093333-42.666667-42.666667s19.093333-42.666667 42.666667-42.666666h85.333333c70.72 0 128 57.28 128 128zM640 85.333333c0 23.573333-19.093333 42.666667-42.666667 42.666667H426.666667c-23.573333 0-42.666667-19.093333-42.666667-42.666667s19.093333-42.666667 42.666667-42.666666h170.666666c23.573333 0 42.666667 19.093333 42.666667 42.666666z m42.666667 384H341.333333a42.666667 42.666667 0 0 0 0 85.333334h341.333334a42.666667 42.666667 0 0 0 0-85.333334z" p-id="3891"></path></svg>